<mxfile host="app.diagrams.net" modified="2021-02-23T18:27:27.413Z" agent="5.0 (Windows NT 10.0; Win64; x64) AppleWebKit/537.36 (KHTML, like Gecko) Chrome/88.0.4324.41 YaBrowser/21.2.0.1097 Yowser/2.5 Safari/537.36" etag="5-MVrpTzqYeQLUa9Lxdu" version="14.4.2" type="github">
  <diagram id="ns-GC5HS9SbYwKVhb7r3" name="Page-1">
    <mxGraphModel dx="1145" dy="658" grid="1" gridSize="10" guides="1" tooltips="1" connect="1" arrows="1" fold="1" page="1" pageScale="1" pageWidth="827" pageHeight="1169" math="0" shadow="0">
      <root>
        <mxCell id="0" />
        <mxCell id="1" parent="0" />
        <mxCell id="DFsSfQFF00fMMGSObQ6y-1" value="Хранилище" style="rounded=0;whiteSpace=wrap;html=1;" vertex="1" parent="1">
          <mxGeometry x="384" y="120" width="120" height="60" as="geometry" />
        </mxCell>
        <mxCell id="DFsSfQFF00fMMGSObQ6y-2" value="Хранилище во внешней памяти" style="rounded=0;whiteSpace=wrap;html=1;" vertex="1" parent="1">
          <mxGeometry x="100" y="245" width="120" height="60" as="geometry" />
        </mxCell>
        <mxCell id="DFsSfQFF00fMMGSObQ6y-3" value="Хранилище в оперативной памяти" style="rounded=0;whiteSpace=wrap;html=1;" vertex="1" parent="1">
          <mxGeometry x="300" y="245" width="120" height="60" as="geometry" />
        </mxCell>
        <mxCell id="DFsSfQFF00fMMGSObQ6y-7" value="&lt;font style=&quot;font-size: 10px&quot;&gt;Таблица Сортированных Строк, N&lt;/font&gt;" style="rounded=0;whiteSpace=wrap;html=1;" vertex="1" parent="1">
          <mxGeometry x="220" y="460" width="80" height="60" as="geometry" />
        </mxCell>
        <mxCell id="DFsSfQFF00fMMGSObQ6y-9" value="&lt;span style=&quot;font-size: 10px&quot;&gt;Таблица Сортированных Строк, N&lt;/span&gt;" style="rounded=0;whiteSpace=wrap;html=1;" vertex="1" parent="1">
          <mxGeometry x="340" y="460" width="80" height="60" as="geometry" />
        </mxCell>
        <mxCell id="DFsSfQFF00fMMGSObQ6y-10" value="&lt;span style=&quot;font-size: 10px&quot;&gt;Таблица Сортированных Строк, N&lt;/span&gt;" style="rounded=0;whiteSpace=wrap;html=1;" vertex="1" parent="1">
          <mxGeometry x="460" y="460" width="80" height="60" as="geometry" />
        </mxCell>
        <mxCell id="DFsSfQFF00fMMGSObQ6y-11" value="&lt;span style=&quot;font-size: 10px&quot;&gt;Таблица Сортированных Строк, N&lt;/span&gt;" style="rounded=0;whiteSpace=wrap;html=1;" vertex="1" parent="1">
          <mxGeometry x="580" y="460" width="80" height="60" as="geometry" />
        </mxCell>
        <mxCell id="DFsSfQFF00fMMGSObQ6y-12" value="&lt;span style=&quot;font-size: 10px&quot;&gt;Таблица Сортированных Строк, PN&lt;/span&gt;" style="rounded=0;whiteSpace=wrap;html=1;" vertex="1" parent="1">
          <mxGeometry x="220" y="540" width="200" height="60" as="geometry" />
        </mxCell>
        <mxCell id="DFsSfQFF00fMMGSObQ6y-13" value="&lt;span style=&quot;font-size: 10px&quot;&gt;Таблица Сортированных Строк, PN&lt;/span&gt;" style="rounded=0;whiteSpace=wrap;html=1;" vertex="1" parent="1">
          <mxGeometry x="460" y="540" width="200" height="60" as="geometry" />
        </mxCell>
        <mxCell id="DFsSfQFF00fMMGSObQ6y-14" value="&lt;span style=&quot;font-size: 10px&quot;&gt;Таблица Сортированных Строк, P^2 * N&lt;/span&gt;" style="rounded=0;whiteSpace=wrap;html=1;" vertex="1" parent="1">
          <mxGeometry x="220" y="630" width="440" height="50" as="geometry" />
        </mxCell>
        <mxCell id="DFsSfQFF00fMMGSObQ6y-15" value="" style="endArrow=classic;html=1;entryX=0;entryY=0.5;entryDx=0;entryDy=0;" edge="1" parent="1" target="DFsSfQFF00fMMGSObQ6y-14">
          <mxGeometry width="50" height="50" relative="1" as="geometry">
            <mxPoint x="160" y="420" as="sourcePoint" />
            <mxPoint x="420" y="345" as="targetPoint" />
            <Array as="points">
              <mxPoint x="160" y="655" />
            </Array>
          </mxGeometry>
        </mxCell>
        <mxCell id="DFsSfQFF00fMMGSObQ6y-16" value="" style="endArrow=classic;html=1;entryX=0;entryY=0.5;entryDx=0;entryDy=0;" edge="1" parent="1" target="DFsSfQFF00fMMGSObQ6y-12">
          <mxGeometry width="50" height="50" relative="1" as="geometry">
            <mxPoint x="160" y="420" as="sourcePoint" />
            <mxPoint x="230" y="565" as="targetPoint" />
            <Array as="points">
              <mxPoint x="160" y="570" />
            </Array>
          </mxGeometry>
        </mxCell>
        <mxCell id="DFsSfQFF00fMMGSObQ6y-17" value="" style="endArrow=classic;html=1;entryX=0;entryY=0.5;entryDx=0;entryDy=0;exitX=0.5;exitY=1;exitDx=0;exitDy=0;" edge="1" parent="1" source="DFsSfQFF00fMMGSObQ6y-2" target="DFsSfQFF00fMMGSObQ6y-7">
          <mxGeometry width="50" height="50" relative="1" as="geometry">
            <mxPoint x="160" y="310" as="sourcePoint" />
            <mxPoint x="230" y="485" as="targetPoint" />
            <Array as="points">
              <mxPoint x="160" y="490" />
            </Array>
          </mxGeometry>
        </mxCell>
        <mxCell id="DFsSfQFF00fMMGSObQ6y-18" value="" style="endArrow=classic;html=1;exitX=1;exitY=0.5;exitDx=0;exitDy=0;entryX=0;entryY=0.5;entryDx=0;entryDy=0;" edge="1" parent="1" source="DFsSfQFF00fMMGSObQ6y-7" target="DFsSfQFF00fMMGSObQ6y-9">
          <mxGeometry width="50" height="50" relative="1" as="geometry">
            <mxPoint x="370" y="490" as="sourcePoint" />
            <mxPoint x="420" y="440" as="targetPoint" />
          </mxGeometry>
        </mxCell>
        <mxCell id="DFsSfQFF00fMMGSObQ6y-19" value="" style="endArrow=classic;html=1;exitX=1;exitY=0.5;exitDx=0;exitDy=0;" edge="1" parent="1" source="DFsSfQFF00fMMGSObQ6y-9" target="DFsSfQFF00fMMGSObQ6y-10">
          <mxGeometry width="50" height="50" relative="1" as="geometry">
            <mxPoint x="370" y="490" as="sourcePoint" />
            <mxPoint x="420" y="440" as="targetPoint" />
          </mxGeometry>
        </mxCell>
        <mxCell id="DFsSfQFF00fMMGSObQ6y-21" value="" style="endArrow=classic;html=1;exitX=1;exitY=0.5;exitDx=0;exitDy=0;entryX=0;entryY=0.5;entryDx=0;entryDy=0;" edge="1" parent="1" source="DFsSfQFF00fMMGSObQ6y-10" target="DFsSfQFF00fMMGSObQ6y-11">
          <mxGeometry width="50" height="50" relative="1" as="geometry">
            <mxPoint x="430" y="500" as="sourcePoint" />
            <mxPoint x="470" y="500" as="targetPoint" />
          </mxGeometry>
        </mxCell>
        <mxCell id="DFsSfQFF00fMMGSObQ6y-22" value="" style="endArrow=classic;html=1;exitX=1;exitY=0.5;exitDx=0;exitDy=0;entryX=0;entryY=0.5;entryDx=0;entryDy=0;" edge="1" parent="1" source="DFsSfQFF00fMMGSObQ6y-12" target="DFsSfQFF00fMMGSObQ6y-13">
          <mxGeometry width="50" height="50" relative="1" as="geometry">
            <mxPoint x="430" y="500" as="sourcePoint" />
            <mxPoint x="470" y="500" as="targetPoint" />
          </mxGeometry>
        </mxCell>
        <mxCell id="DFsSfQFF00fMMGSObQ6y-23" value="" style="endArrow=classic;html=1;exitX=1;exitY=0.5;exitDx=0;exitDy=0;dashed=1;" edge="1" parent="1" source="DFsSfQFF00fMMGSObQ6y-11">
          <mxGeometry width="50" height="50" relative="1" as="geometry">
            <mxPoint x="370" y="490" as="sourcePoint" />
            <mxPoint x="700" y="490" as="targetPoint" />
          </mxGeometry>
        </mxCell>
        <mxCell id="DFsSfQFF00fMMGSObQ6y-24" value="" style="endArrow=classic;html=1;exitX=1;exitY=0.5;exitDx=0;exitDy=0;dashed=1;" edge="1" parent="1" source="DFsSfQFF00fMMGSObQ6y-13">
          <mxGeometry width="50" height="50" relative="1" as="geometry">
            <mxPoint x="670" y="500" as="sourcePoint" />
            <mxPoint x="700" y="570" as="targetPoint" />
          </mxGeometry>
        </mxCell>
        <mxCell id="DFsSfQFF00fMMGSObQ6y-26" value="" style="endArrow=classic;html=1;exitX=1;exitY=0.5;exitDx=0;exitDy=0;dashed=1;" edge="1" parent="1" source="DFsSfQFF00fMMGSObQ6y-14">
          <mxGeometry width="50" height="50" relative="1" as="geometry">
            <mxPoint x="670" y="590" as="sourcePoint" />
            <mxPoint x="700" y="655" as="targetPoint" />
          </mxGeometry>
        </mxCell>
        <mxCell id="DFsSfQFF00fMMGSObQ6y-27" value="Чтение, если ключ содержится не содержится в памяти" style="text;html=1;strokeColor=none;fillColor=none;align=center;verticalAlign=middle;whiteSpace=wrap;rounded=0;" vertex="1" parent="1">
          <mxGeometry x="170" y="195" width="130" height="40" as="geometry" />
        </mxCell>
        <mxCell id="DFsSfQFF00fMMGSObQ6y-31" value="Логгер" style="rounded=0;whiteSpace=wrap;html=1;" vertex="1" parent="1">
          <mxGeometry x="520" y="245" width="120" height="60" as="geometry" />
        </mxCell>
        <mxCell id="DFsSfQFF00fMMGSObQ6y-33" value="" style="endArrow=classic;html=1;entryX=0.833;entryY=0;entryDx=0;entryDy=0;entryPerimeter=0;exitX=0.133;exitY=1;exitDx=0;exitDy=0;exitPerimeter=0;" edge="1" parent="1" source="DFsSfQFF00fMMGSObQ6y-1" target="DFsSfQFF00fMMGSObQ6y-3">
          <mxGeometry width="50" height="50" relative="1" as="geometry">
            <mxPoint x="380" y="190" as="sourcePoint" />
            <mxPoint x="570" y="235" as="targetPoint" />
            <Array as="points">
              <mxPoint x="400" y="210" />
            </Array>
          </mxGeometry>
        </mxCell>
        <mxCell id="DFsSfQFF00fMMGSObQ6y-34" value="Запись в лог, перед записью в память" style="text;html=1;strokeColor=none;fillColor=none;align=center;verticalAlign=middle;whiteSpace=wrap;rounded=0;" vertex="1" parent="1">
          <mxGeometry x="470" y="190" width="90" height="45" as="geometry" />
        </mxCell>
        <mxCell id="DFsSfQFF00fMMGSObQ6y-35" value="Запись в память" style="text;html=1;strokeColor=none;fillColor=none;align=center;verticalAlign=middle;whiteSpace=wrap;rounded=0;" vertex="1" parent="1">
          <mxGeometry x="340" y="197.5" width="60" height="20" as="geometry" />
        </mxCell>
        <mxCell id="DFsSfQFF00fMMGSObQ6y-37" value="Чтение из ключа" style="text;html=1;strokeColor=none;fillColor=none;align=center;verticalAlign=middle;whiteSpace=wrap;rounded=0;" vertex="1" parent="1">
          <mxGeometry x="285" y="125" width="70" height="20" as="geometry" />
        </mxCell>
        <mxCell id="DFsSfQFF00fMMGSObQ6y-47" value="" style="endArrow=classic;html=1;exitX=1;exitY=0.333;exitDx=0;exitDy=0;exitPerimeter=0;entryX=0;entryY=0.333;entryDx=0;entryDy=0;entryPerimeter=0;" edge="1" parent="1" source="DFsSfQFF00fMMGSObQ6y-2" target="DFsSfQFF00fMMGSObQ6y-3">
          <mxGeometry width="50" height="50" relative="1" as="geometry">
            <mxPoint x="230" y="265" as="sourcePoint" />
            <mxPoint x="510" y="285" as="targetPoint" />
          </mxGeometry>
        </mxCell>
        <mxCell id="DFsSfQFF00fMMGSObQ6y-49" value="" style="endArrow=classic;html=1;exitX=-0.014;exitY=0.831;exitDx=0;exitDy=0;exitPerimeter=0;entryX=1;entryY=0.833;entryDx=0;entryDy=0;entryPerimeter=0;" edge="1" parent="1" source="DFsSfQFF00fMMGSObQ6y-3" target="DFsSfQFF00fMMGSObQ6y-2">
          <mxGeometry width="50" height="50" relative="1" as="geometry">
            <mxPoint x="290" y="295" as="sourcePoint" />
            <mxPoint x="310" y="274.98" as="targetPoint" />
          </mxGeometry>
        </mxCell>
        <mxCell id="DFsSfQFF00fMMGSObQ6y-50" value="Запись на диск" style="text;html=1;strokeColor=none;fillColor=none;align=center;verticalAlign=middle;whiteSpace=wrap;rounded=0;" vertex="1" parent="1">
          <mxGeometry x="230" y="300" width="60" height="20" as="geometry" />
        </mxCell>
        <mxCell id="DFsSfQFF00fMMGSObQ6y-51" value="Файл логов" style="rounded=0;whiteSpace=wrap;html=1;" vertex="1" parent="1">
          <mxGeometry x="720" y="245" width="80" height="60" as="geometry" />
        </mxCell>
        <mxCell id="DFsSfQFF00fMMGSObQ6y-52" value="" style="endArrow=classic;html=1;exitX=1;exitY=0.75;exitDx=0;exitDy=0;entryX=0;entryY=0.75;entryDx=0;entryDy=0;" edge="1" parent="1" source="DFsSfQFF00fMMGSObQ6y-31" target="DFsSfQFF00fMMGSObQ6y-51">
          <mxGeometry width="50" height="50" relative="1" as="geometry">
            <mxPoint x="480" y="340" as="sourcePoint" />
            <mxPoint x="530" y="290" as="targetPoint" />
          </mxGeometry>
        </mxCell>
        <mxCell id="DFsSfQFF00fMMGSObQ6y-54" value="" style="endArrow=classic;html=1;exitX=0.25;exitY=0;exitDx=0;exitDy=0;entryX=0;entryY=0.5;entryDx=0;entryDy=0;" edge="1" parent="1" source="DFsSfQFF00fMMGSObQ6y-3" target="DFsSfQFF00fMMGSObQ6y-1">
          <mxGeometry width="50" height="50" relative="1" as="geometry">
            <mxPoint x="330" y="230" as="sourcePoint" />
            <mxPoint x="350" y="150" as="targetPoint" />
            <Array as="points">
              <mxPoint x="330" y="150" />
            </Array>
          </mxGeometry>
        </mxCell>
        <mxCell id="DFsSfQFF00fMMGSObQ6y-55" value="" style="endArrow=classic;html=1;entryX=0.333;entryY=0;entryDx=0;entryDy=0;entryPerimeter=0;" edge="1" parent="1" target="DFsSfQFF00fMMGSObQ6y-31">
          <mxGeometry width="50" height="50" relative="1" as="geometry">
            <mxPoint x="540" y="170" as="sourcePoint" />
            <mxPoint x="430" y="300" as="targetPoint" />
            <Array as="points">
              <mxPoint x="500" y="170" />
              <mxPoint x="560" y="170" />
            </Array>
          </mxGeometry>
        </mxCell>
        <mxCell id="DFsSfQFF00fMMGSObQ6y-56" value="" style="endArrow=classic;html=1;entryX=1;entryY=0.333;entryDx=0;entryDy=0;entryPerimeter=0;exitX=0.75;exitY=0;exitDx=0;exitDy=0;" edge="1" parent="1" source="DFsSfQFF00fMMGSObQ6y-31" target="DFsSfQFF00fMMGSObQ6y-1">
          <mxGeometry width="50" height="50" relative="1" as="geometry">
            <mxPoint x="610" y="220" as="sourcePoint" />
            <mxPoint x="480" y="180" as="targetPoint" />
            <Array as="points">
              <mxPoint x="610" y="140" />
            </Array>
          </mxGeometry>
        </mxCell>
        <mxCell id="DFsSfQFF00fMMGSObQ6y-57" value="Восстановление данных если файл логов при инициализации не пуст" style="text;html=1;strokeColor=none;fillColor=none;align=center;verticalAlign=middle;whiteSpace=wrap;rounded=0;" vertex="1" parent="1">
          <mxGeometry x="510" y="80" width="140" height="45" as="geometry" />
        </mxCell>
        <mxCell id="DFsSfQFF00fMMGSObQ6y-58" value="" style="endArrow=classic;html=1;exitX=0;exitY=0.25;exitDx=0;exitDy=0;entryX=1;entryY=0.25;entryDx=0;entryDy=0;" edge="1" parent="1" source="DFsSfQFF00fMMGSObQ6y-51" target="DFsSfQFF00fMMGSObQ6y-31">
          <mxGeometry width="50" height="50" relative="1" as="geometry">
            <mxPoint x="650" y="300" as="sourcePoint" />
            <mxPoint x="730" y="300" as="targetPoint" />
          </mxGeometry>
        </mxCell>
        <mxCell id="DFsSfQFF00fMMGSObQ6y-59" value="Запись в конец файла" style="text;html=1;strokeColor=none;fillColor=none;align=center;verticalAlign=middle;whiteSpace=wrap;rounded=0;" vertex="1" parent="1">
          <mxGeometry x="640" y="305" width="80" height="20" as="geometry" />
        </mxCell>
        <mxCell id="DFsSfQFF00fMMGSObQ6y-60" value="Чтение файла лога при инициализации хранилища" style="text;html=1;strokeColor=none;fillColor=none;align=center;verticalAlign=middle;whiteSpace=wrap;rounded=0;" vertex="1" parent="1">
          <mxGeometry x="630" y="170" width="110" height="75" as="geometry" />
        </mxCell>
        <mxCell id="DFsSfQFF00fMMGSObQ6y-64" value="Модуль слияния" style="rounded=0;whiteSpace=wrap;html=1;" vertex="1" parent="1">
          <mxGeometry x="380" y="340" width="120" height="60" as="geometry" />
        </mxCell>
        <mxCell id="DFsSfQFF00fMMGSObQ6y-65" value="" style="endArrow=classic;html=1;entryX=0.5;entryY=0;entryDx=0;entryDy=0;" edge="1" parent="1" target="DFsSfQFF00fMMGSObQ6y-64">
          <mxGeometry width="50" height="50" relative="1" as="geometry">
            <mxPoint x="440" y="182" as="sourcePoint" />
            <mxPoint x="520" y="310" as="targetPoint" />
          </mxGeometry>
        </mxCell>
        <mxCell id="DFsSfQFF00fMMGSObQ6y-66" value="" style="endArrow=classic;html=1;entryX=0.5;entryY=0;entryDx=0;entryDy=0;exitX=0;exitY=0.5;exitDx=0;exitDy=0;" edge="1" parent="1" source="DFsSfQFF00fMMGSObQ6y-64" target="DFsSfQFF00fMMGSObQ6y-7">
          <mxGeometry width="50" height="50" relative="1" as="geometry">
            <mxPoint x="260" y="380" as="sourcePoint" />
            <mxPoint x="470" y="350" as="targetPoint" />
            <Array as="points">
              <mxPoint x="260" y="370" />
            </Array>
          </mxGeometry>
        </mxCell>
        <mxCell id="DFsSfQFF00fMMGSObQ6y-68" value="" style="endArrow=classic;html=1;entryX=0.25;entryY=0;entryDx=0;entryDy=0;" edge="1" parent="1" target="DFsSfQFF00fMMGSObQ6y-9">
          <mxGeometry width="50" height="50" relative="1" as="geometry">
            <mxPoint x="380" y="370" as="sourcePoint" />
            <mxPoint x="270" y="470" as="targetPoint" />
            <Array as="points">
              <mxPoint x="360" y="370" />
            </Array>
          </mxGeometry>
        </mxCell>
        <mxCell id="DFsSfQFF00fMMGSObQ6y-69" value="" style="endArrow=classic;html=1;exitX=1;exitY=0.5;exitDx=0;exitDy=0;entryX=0.75;entryY=0;entryDx=0;entryDy=0;" edge="1" parent="1" source="DFsSfQFF00fMMGSObQ6y-64" target="DFsSfQFF00fMMGSObQ6y-10">
          <mxGeometry width="50" height="50" relative="1" as="geometry">
            <mxPoint x="410" y="380" as="sourcePoint" />
            <mxPoint x="570" y="420" as="targetPoint" />
            <Array as="points">
              <mxPoint x="520" y="370" />
            </Array>
          </mxGeometry>
        </mxCell>
        <mxCell id="DFsSfQFF00fMMGSObQ6y-70" value="" style="endArrow=classic;html=1;entryX=0.5;entryY=0;entryDx=0;entryDy=0;" edge="1" parent="1" target="DFsSfQFF00fMMGSObQ6y-11">
          <mxGeometry width="50" height="50" relative="1" as="geometry">
            <mxPoint x="500" y="370" as="sourcePoint" />
            <mxPoint x="620" y="370" as="targetPoint" />
            <Array as="points">
              <mxPoint x="620" y="370" />
            </Array>
          </mxGeometry>
        </mxCell>
        <mxCell id="DFsSfQFF00fMMGSObQ6y-71" value="Слияние таблиц на одном уровне" style="text;html=1;strokeColor=none;fillColor=none;align=center;verticalAlign=middle;whiteSpace=wrap;rounded=0;" vertex="1" parent="1">
          <mxGeometry x="510" y="340" width="110" height="20" as="geometry" />
        </mxCell>
        <mxCell id="DFsSfQFF00fMMGSObQ6y-80" value="&lt;ol&gt;&lt;li&gt;P - степень дерева&lt;/li&gt;&lt;li&gt;N - количество строк записываемых на первом уровне&lt;/li&gt;&lt;/ol&gt;" style="text;strokeColor=none;fillColor=none;html=1;whiteSpace=wrap;verticalAlign=middle;overflow=hidden;" vertex="1" parent="1">
          <mxGeometry x="100" y="80" width="160" height="80" as="geometry" />
        </mxCell>
      </root>
    </mxGraphModel>
  </diagram>
</mxfile>
